<svg width="64" height="64" viewBox="0 0 64 64" fill="none" xmlns="http://www.w3.org/2000/svg">
<path d="M23.7224 9.7366L6.70163 16.6411C3.00042 18.1425 1.21713 22.36 2.71853 26.0613L12.318 49.7257C13.8194 53.4269 18.037 55.2102 21.7382 53.7088L38.7589 46.8043C42.4602 45.3029 44.2435 41.0853 42.7421 37.3841L33.1426 13.7197C31.6411 10.0185 27.4236 8.2352 23.7224 9.7366Z" fill="#E5E5E5"/>
<path d="M53.3752 17.5632L39.2369 11.8079C34.7439 9.97891 29.6189 12.1385 27.7899 16.6315L19.3314 37.4102C17.5024 41.9032 19.662 47.0282 24.155 48.8572L38.2933 54.6125C42.7864 56.4415 47.9113 54.2819 49.7403 49.7889L58.1988 29.0102C60.0278 24.5172 57.8682 19.3922 53.3752 17.5632Z" fill="white"/>
<path d="M38.7527 42.4395C43.8456 42.4395 47.9742 38.3109 47.9742 33.218C47.9742 28.1252 43.8456 23.9966 38.7527 23.9966C33.6598 23.9966 29.5312 28.1252 29.5312 33.218C29.5312 38.3109 33.6598 42.4395 38.7527 42.4395Z" fill="white"/>
<path d="M38.7506 43.2528H38.1751C36.8587 43.181 35.5696 42.8498 34.3816 42.2783C33.1936 41.7069 32.1302 40.9064 31.2525 39.9228C30.3747 38.9393 29.6999 37.792 29.2667 36.547C28.8336 35.3019 28.6506 33.9835 28.7284 32.6675C28.7444 32.4529 28.8436 32.253 29.0049 32.1104C29.1662 31.9679 29.3767 31.8939 29.5917 31.9043C29.698 31.9091 29.8023 31.935 29.8985 31.9805C29.9947 32.0261 30.0808 32.0903 30.1519 32.1695C30.2229 32.2487 30.2775 32.3413 30.3124 32.4419C30.3472 32.5424 30.3617 32.6489 30.3549 32.7551C30.2272 34.9818 30.9892 37.168 32.4734 38.8328C33.9575 40.4977 36.0422 41.5047 38.2689 41.6325C40.4956 41.7602 42.6818 40.9982 44.3466 39.5141C46.0114 38.0299 47.0185 35.9452 47.1463 33.7185C47.1579 33.5028 47.2547 33.3006 47.4154 33.1563C47.5762 33.012 47.7877 32.9374 48.0034 32.949C48.2191 32.9607 48.4213 33.0575 48.5656 33.2182C48.7099 33.379 48.7845 33.5904 48.7729 33.8061C48.6287 36.3643 47.5092 38.7697 45.6447 40.5271C43.7802 42.2845 41.3128 43.2601 38.7506 43.2528Z" fill="black"/>
<path d="M57.9372 16.652L40.9249 9.72671C37.2255 8.22079 33.0058 9.99894 31.4999 13.6983L21.8714 37.351C20.3655 41.0504 22.1437 45.2701 25.843 46.776L42.8553 53.7013C46.5547 55.2072 50.7744 53.4291 52.2804 49.7297L61.9088 26.077C63.4147 22.3776 61.6365 18.1579 57.9372 16.652Z" fill="#F8C341"/>
<path d="M41.8933 40.9506C46.9862 40.9506 51.1148 36.822 51.1148 31.7292C51.1148 26.6363 46.9862 22.5077 41.8933 22.5077C36.8005 22.5077 32.6719 26.6363 32.6719 31.7292C32.6719 36.822 36.8005 40.9506 41.8933 40.9506Z" fill="white"/>
<path d="M47.3731 39.9495C47.2467 39.9505 47.1218 39.9216 47.0087 39.865C46.8956 39.8085 46.7976 39.726 46.7225 39.6242C46.6568 39.5394 46.6088 39.4423 46.5813 39.3386C46.5539 39.2349 46.5476 39.1267 46.5627 39.0205C46.5779 38.9143 46.6143 38.8122 46.6697 38.7203C46.725 38.6284 46.7983 38.5486 46.8851 38.4856C47.872 37.7518 48.6875 36.8123 49.2751 35.732C49.8628 34.6518 50.2085 33.4567 50.2885 32.2295C50.3001 32.0138 50.3969 31.8116 50.5576 31.6673C50.7184 31.523 50.9298 31.4484 51.1455 31.46C51.3612 31.4717 51.5635 31.5685 51.7078 31.7292C51.8521 31.8899 51.9267 32.1014 51.915 32.3171C51.8249 33.7877 51.4155 35.2211 50.7154 36.5175C50.0153 37.814 49.0413 38.9424 47.8611 39.8244C47.7139 39.9123 47.5444 39.9558 47.3731 39.9495Z" fill="black"/>
</svg>
