<svg width="44" height="44" viewBox="0 0 44 44" fill="none" xmlns="http://www.w3.org/2000/svg">
<path d="M29.48 18.4253C28.9373 18.4253 28.498 18.8646 28.498 19.4073V20.4194C28.498 22.1551 27.8261 23.8348 26.6029 25.0623C24.0705 27.6033 19.9574 27.612 17.4163 25.0752C16.1931 23.8563 15.504 22.1982 15.504 20.4711V19.403C15.4911 18.8603 15.0432 18.4296 14.5005 18.4425C13.975 18.4554 13.5487 18.8775 13.54 19.403V20.4108C13.54 22.6891 14.4316 24.8857 16.051 26.4879C17.3947 27.823 19.152 28.6672 21.0341 28.8782V31.0704H19.8281C19.2941 31.0704 18.8634 31.5011 18.8634 32.0352C18.8634 32.5692 19.2941 32.9999 19.8281 32.9999H24.1738C24.7079 32.9999 25.1386 32.5692 25.1386 32.0352C25.1386 31.5011 24.7079 31.0704 24.1738 31.0704H22.9679V28.8782C27.2404 28.3872 30.4619 24.7737 30.4619 20.4754V19.4073C30.4619 18.8646 30.0226 18.4253 29.48 18.4253Z" fill="white"/>
<path d="M22.0015 25.5878C24.8225 25.5835 27.1095 23.2965 27.1138 20.4755V16.0652C27.088 13.2398 24.7794 10.9744 21.9541 11.0002C19.1675 11.0261 16.915 13.2786 16.8892 16.0652V20.4755C16.8935 23.3008 19.1804 25.5878 22.0015 25.5878ZM20.8645 13.9849H23.1471C23.6596 13.9849 24.0731 14.3984 24.0731 14.9109C24.0731 15.4234 23.6596 15.8369 23.1471 15.8369H20.8645C20.3519 15.8369 19.9385 15.4234 19.9385 14.9109C19.9385 14.3984 20.3519 13.9849 20.8645 13.9849ZM20.8645 17.3443H23.1471C23.6596 17.3443 24.0731 17.7578 24.0731 18.2703C24.0731 18.7828 23.6596 19.1963 23.1471 19.1963H20.8645C20.3519 19.1963 19.9385 18.7828 19.9385 18.2703C19.9385 17.7578 20.3519 17.3443 20.8645 17.3443ZM20.8645 20.7037H23.1471C23.6596 20.7037 24.0731 21.1172 24.0731 21.6297C24.0731 22.1422 23.6596 22.5557 23.1471 22.5557H20.8645C20.3519 22.5557 19.9385 22.1422 19.9385 21.6297C19.9385 21.1172 20.3519 20.7037 20.8645 20.7037Z" fill="white"/>
<rect x="2.54932" y="6.90942" width="33.4125" height="37.125" rx="0.773438" transform="rotate(-11.3105 2.54932 6.90942)" fill="#F4F4F4"/>
<path d="M29.207 36.2709C29.381 36.546 29.225 36.9101 28.9058 36.974L12.529 40.2495C12.1101 40.3333 11.7027 40.0616 11.6189 39.6428L5.6119 9.60949C5.52812 9.19063 5.79976 8.78316 6.21862 8.69938L10.6253 7.818C10.9393 7.7552 11.2595 7.89238 11.4307 8.16301L29.207 36.2709Z" fill="#E5E5E5"/>
<path d="M32.6124 3.42073C33.0312 3.33711 33.4387 3.60868 33.5225 4.02745L35.1507 12.168L19.2913 15.34C18.9773 15.4028 18.6571 15.2657 18.486 14.995L13.935 7.79913C13.7611 7.52401 13.917 7.16001 14.2362 7.09616L32.6124 3.42073Z" fill="#E5E5E5"/>
<path d="M37.4138 23.4934L25.9017 25.796C25.5877 25.8588 25.2674 25.7216 25.0963 25.451L20.5457 18.2557C20.3717 17.9806 20.5277 17.6165 20.8469 17.5526L35.634 14.5951L37.4138 23.4934Z" fill="#E5E5E5"/>
<path d="M39.5308 34.0605C39.6146 34.4794 39.3429 34.8869 38.9241 34.9706L32.5184 36.2518C32.2045 36.3146 31.8842 36.1775 31.7131 35.907L27.1622 28.711C26.9882 28.4359 27.1442 28.0718 27.4634 28.008L37.9026 25.92L39.5308 34.0605Z" fill="#E5E5E5"/>
<path d="M10.1267 16.414C11.1718 17.1497 12.4662 17.4415 13.7259 17.2258C14.7125 17.0568 15.6142 16.5863 16.3151 15.8903L24.7095 29.1648C23.7696 29.4951 22.9472 30.1095 22.3644 30.9336C21.6265 31.977 21.3322 33.2702 21.5451 34.5303L21.8657 36.4321L20.287 35.3207C19.2421 34.5851 17.9483 34.2931 16.6887 34.5087C15.429 34.7244 14.3056 35.4306 13.5649 36.472L12.4447 38.0465L12.1118 36.1432C11.8927 34.8842 11.184 33.7628 10.1407 33.0249C9.09727 32.2871 7.80396 31.9927 6.54392 32.2056L4.64213 32.5262L5.75351 30.9475C6.48912 29.9026 6.78106 28.6088 6.56551 27.3492C6.34984 26.0896 5.6445 24.966 4.60317 24.2252L3.02772 23.1052L4.93104 22.7723C6.19016 22.5533 7.31136 21.8446 8.04934 20.8012C8.78723 19.7577 9.08157 18.4645 8.86862 17.2044L8.548 15.3026L10.1267 16.414Z" fill="#F76977"/>
<path d="M21.7756 24.7952C21.8888 24.7285 22.0239 24.7096 22.1511 24.7425C22.2783 24.7755 22.3872 24.8576 22.4539 24.9708L26.8437 31.9543C26.8799 32.0096 26.9045 32.0716 26.916 32.1367C26.9275 32.2017 26.9256 32.2684 26.9106 32.3327C26.8955 32.397 26.8675 32.4576 26.8284 32.5108C26.7892 32.564 26.7396 32.6086 26.6826 32.6421C26.6281 32.6806 26.566 32.7071 26.5005 32.7199C26.435 32.7326 26.3675 32.7313 26.3026 32.7161C26.2376 32.7009 26.1765 32.6721 26.1235 32.6315C26.0705 32.591 26.0266 32.5397 25.9949 32.481L21.5827 25.4747C21.5128 25.3602 21.4908 25.2227 21.5214 25.092C21.5521 24.9613 21.6329 24.8479 21.7465 24.7764L21.7756 24.7952Z" fill="black"/>
</svg>
