<svg width="520" height="360" viewBox="0 0 520 360" fill="none" xmlns="http://www.w3.org/2000/svg">
<path d="M232.002 207.336C232.182 207.756 232.276 208.208 232.281 208.664C232.285 209.121 232.2 209.574 232.029 209.998C231.858 210.421 231.605 210.807 231.285 211.133C230.964 211.459 230.583 211.718 230.162 211.896C229.128 212.31 228.281 213.089 227.783 214.086C227.284 215.083 227.169 216.228 227.458 217.304C227.638 217.889 227.939 218.43 228.341 218.892C228.743 219.354 229.238 219.726 229.793 219.984C230.348 220.243 230.951 220.382 231.563 220.393C232.175 220.404 232.783 220.287 233.346 220.048L239.466 217.448C240.889 216.842 242.012 215.696 242.591 214.262C243.17 212.829 243.157 211.224 242.554 209.8L233.114 187.552L225.066 190.968L232.002 207.336Z" fill="#F56977"/>
<path d="M215.491 214.024C215.67 214.444 215.764 214.894 215.769 215.351C215.773 215.807 215.687 216.259 215.516 216.682C215.345 217.105 215.093 217.49 214.772 217.815C214.452 218.14 214.071 218.399 213.651 218.576C212.616 218.992 211.77 219.773 211.273 220.771C210.776 221.77 210.663 222.916 210.955 223.992C211.134 224.577 211.435 225.118 211.837 225.58C212.24 226.041 212.734 226.413 213.29 226.671C213.845 226.929 214.448 227.067 215.06 227.077C215.672 227.087 216.28 226.968 216.843 226.728L222.955 224.128C223.66 223.829 224.3 223.395 224.837 222.848C225.375 222.302 225.799 221.655 226.086 220.945C226.373 220.234 226.516 219.474 226.509 218.708C226.502 217.942 226.343 217.185 226.043 216.48L216.611 194.232L208.555 197.656L215.491 214.024Z" fill="#F56977"/>
<path d="M202.761 150.608L196.049 150.584L189.409 150.136L182.769 150.36L176.121 150.488L169.481 150.112L162.841 150.088L156.193 150.288L149.553 149.952L143.105 150.288L145.729 156.648L148.577 163.136L151.089 169.752L153.833 176.28L156.745 182.736L159.569 189.224L162.049 195.856L164.721 202.416L167.761 208.808L170.529 215.328L172.993 221.976L175.713 228.512L178.577 234.912L183.257 230.304L187.889 225.544L192.569 220.832L197.057 215.936L201.713 211.184L206.441 206.52L211.057 201.744L215.665 196.96L220.297 192.272L226.985 191.152L233.729 190.04L240.569 189.568L247.329 188.552L254.049 187.448L251.537 180.976L248.545 174.656L246.017 168.152L243.073 161.816L240.569 155.296L237.937 148.832L234.977 142.504L232.353 136.032L229.761 129.488L224.297 133.68L219.073 138.096L213.553 142.112L208.049 146.176L202.761 150.608Z" fill="#F56977"/>
<path d="M199.683 170.248C201.331 174.176 202.083 178.84 197.851 180.648C193.619 182.456 190.867 178.792 189.147 174.688C187.427 170.584 189.003 167.736 191.907 166.512C194.811 165.288 198.035 166.32 199.683 170.248Z" fill="white"/>
<path d="M198.289 174.384C199.209 176.576 199.633 179.184 197.265 180.168C194.897 181.152 193.385 179.136 192.425 176.848C191.465 174.56 192.345 172.984 193.961 172.304C195.577 171.624 197.369 172.216 198.289 174.384Z" fill="black"/>
<path d="M226.737 158.88C228.385 162.8 229.137 167.472 224.905 169.28C220.673 171.088 217.921 167.424 216.201 163.328C214.481 159.232 216.057 156.376 218.961 155.152C221.865 153.928 225.089 154.952 226.737 158.88Z" fill="white"/>
<path d="M214.707 182.88C213.118 183.545 211.46 184.031 209.763 184.328C209.493 184.372 209.216 184.308 208.993 184.149C208.769 183.99 208.618 183.75 208.571 183.48C208.524 183.217 208.581 182.946 208.73 182.725C208.88 182.504 209.11 182.35 209.371 182.296C212.471 181.76 215.409 180.526 217.963 178.688C218.184 178.555 218.447 178.51 218.7 178.561C218.953 178.613 219.178 178.757 219.33 178.966C219.481 179.175 219.549 179.433 219.52 179.69C219.49 179.946 219.366 180.183 219.171 180.352C217.782 181.358 216.284 182.206 214.707 182.88Z" fill="black"/>
<path d="M225.449 162.752C226.369 164.936 226.793 167.552 224.425 168.536C222.057 169.52 220.545 167.496 219.585 165.216C218.625 162.936 219.505 161.352 221.121 160.672C222.737 159.992 224.529 160.568 225.449 162.752Z" fill="black"/>
<path d="M344.188 292.848C347.292 291.528 340.132 280.904 338.364 275.136L360.044 271.136C360.044 271.136 378.012 294.984 375.556 307.584C373.756 316.856 371.468 327.16 349.052 324.144L335.844 292.576C339.348 293.432 342.284 293.656 344.188 292.848Z" fill="#FAE7E7"/>
<path d="M213.323 292.688C210.171 291.504 216.899 280.6 218.443 274.768L196.611 271.568C196.611 271.568 179.611 296.104 182.563 308.6C184.739 317.8 187.435 328.008 209.707 324.096L221.651 292.024C218.179 293.088 215.259 293.424 213.323 292.688Z" fill="#FAE7E7"/>
<path d="M309.777 154.384C309.777 127.424 295.833 117.84 278.625 117.84C261.417 117.84 247.465 127.44 247.465 154.384C247.465 168.48 254.281 182.984 264.265 189.08L264.433 189.192C264.921 189.587 265.291 190.109 265.501 190.7C265.711 191.292 265.754 191.93 265.625 192.544L263.817 199.52C263.834 201.774 264.742 203.929 266.343 205.515C267.944 207.101 270.107 207.988 272.361 207.984H286.121C288.059 207.997 289.922 207.24 291.303 205.879C292.683 204.519 293.466 202.666 293.481 200.728L291.633 192.496C291.525 191.926 291.564 191.338 291.748 190.788C291.931 190.237 292.252 189.743 292.681 189.352C292.788 189.253 292.903 189.162 293.025 189.08C302.985 182.944 309.777 168.456 309.777 154.384Z" fill="#FAE7E7"/>
<path d="M340.858 283.856L366.97 281.032C367.975 280.93 368.944 280.601 369.805 280.071C370.665 279.541 371.394 278.823 371.937 277.971C372.481 277.119 372.824 276.155 372.942 275.151C373.06 274.148 372.949 273.131 372.618 272.176L362.106 242.008C354.106 220.52 344.194 209.56 325.842 206.088L296.242 198.984L295.682 198.848C284.443 201.515 272.737 201.515 261.498 198.848L260.946 198.984L231.346 206.088C212.994 209.56 203.106 220.488 195.082 242.008L184.562 272.176C184.232 273.131 184.123 274.149 184.242 275.152C184.361 276.156 184.705 277.119 185.249 277.971C185.793 278.823 186.523 279.541 187.383 280.071C188.244 280.601 189.213 280.929 190.218 281.032L216.33 283.856C216.33 283.856 214.002 309.888 216.858 335.984H337.826C342.338 309.376 340.858 283.856 340.858 283.856Z" fill="#27B5F7"/>
<path d="M267.576 157.816C268.632 157.816 269.488 156.003 269.488 153.768C269.488 151.532 268.632 149.72 267.576 149.72C266.52 149.72 265.664 151.532 265.664 153.768C265.664 156.003 266.52 157.816 267.576 157.816Z" fill="black"/>
<path d="M288.682 157.816C289.738 157.816 290.594 156.003 290.594 153.768C290.594 151.532 289.738 149.72 288.682 149.72C287.626 149.72 286.77 151.532 286.77 153.768C286.77 156.003 287.626 157.816 288.682 157.816Z" fill="black"/>
<path d="M278.242 164.496C278.111 164.497 277.981 164.472 277.86 164.423C277.739 164.373 277.629 164.3 277.536 164.208C277.443 164.116 277.369 164.006 277.318 163.885C277.268 163.764 277.242 163.635 277.242 163.504V146.064C277.265 145.815 277.379 145.584 277.563 145.415C277.748 145.247 277.988 145.153 278.238 145.153C278.488 145.153 278.729 145.247 278.913 145.415C279.097 145.584 279.212 145.815 279.234 146.064V163.504C279.234 163.767 279.13 164.019 278.944 164.205C278.758 164.391 278.505 164.496 278.242 164.496Z" fill="black"/>
<path d="M276.001 175.688C274.392 175.701 272.789 175.485 271.241 175.048C271.117 175.007 271.002 174.942 270.903 174.857C270.804 174.771 270.723 174.667 270.665 174.551C270.606 174.434 270.571 174.307 270.561 174.177C270.552 174.047 270.568 173.916 270.609 173.792C270.65 173.668 270.715 173.553 270.8 173.454C270.885 173.356 270.989 173.275 271.106 173.216C271.223 173.157 271.35 173.122 271.48 173.112C271.61 173.103 271.741 173.119 271.865 173.16C272.289 173.296 282.401 176.448 287.785 166.576C287.841 166.45 287.923 166.337 288.025 166.244C288.127 166.151 288.247 166.081 288.377 166.036C288.508 165.992 288.646 165.976 288.783 165.987C288.921 165.999 289.054 166.039 289.175 166.105C289.297 166.171 289.403 166.261 289.487 166.37C289.572 166.479 289.633 166.604 289.667 166.737C289.701 166.871 289.707 167.01 289.685 167.146C289.662 167.282 289.612 167.412 289.537 167.528C285.857 174.312 280.089 175.688 276.001 175.688Z" fill="black"/>
<path d="M213.323 292.688C205.931 290.856 209.707 324.136 209.707 324.136C211.435 323.832 213.259 323.464 215.211 323.008C242.411 316.672 259.811 317.824 259.811 317.824L255.011 278.832C255.011 278.832 220.715 294.528 213.323 292.688Z" fill="#FAE7E7"/>
<path d="M344.195 292.848C352.075 290.512 349.059 324.12 349.059 324.12C347.323 323.888 345.491 323.592 343.515 323.216C316.075 317.968 298.715 319.808 298.715 319.808L301.979 280.656C301.979 280.656 336.323 295.184 344.195 292.848Z" fill="#FAE7E7"/>
<path d="M228.001 248.999H328.873C329.469 248.999 330.059 249.116 330.609 249.344C331.16 249.572 331.66 249.906 332.081 250.328C332.502 250.749 332.836 251.249 333.064 251.799C333.292 252.35 333.409 252.939 333.409 253.535V325.703H223.441V253.535C223.441 252.937 223.56 252.346 223.789 251.794C224.018 251.242 224.355 250.741 224.778 250.319C225.202 249.898 225.705 249.564 226.258 249.337C226.811 249.111 227.404 248.996 228.001 248.999Z" fill="#E3E3E3"/>
<path d="M286.932 281.04H269.068C266.269 281.04 264 283.03 264 285.486V286.139C264 288.594 266.269 290.585 269.068 290.585H286.932C289.731 290.585 292 288.594 292 286.139V285.486C292 283.03 289.731 281.04 286.932 281.04Z" fill="white"/>
<path d="M333.409 325.32H223.441V335.984H333.409V325.32Z" fill="#C8C8C8"/>
<path d="M479.586 215.048H405.354C400.967 215.048 397.41 218.605 397.41 222.992V255.456C397.41 259.843 400.967 263.4 405.354 263.4H479.586C483.974 263.4 487.53 259.843 487.53 255.456V222.992C487.53 218.605 483.974 215.048 479.586 215.048Z" fill="#F2F2F2"/>
<path d="M418.335 263.4L413.023 283.848L438.831 256.672" fill="#F2F2F2"/>
<path d="M467.993 249.264C473.538 249.264 478.033 244.769 478.033 239.224C478.033 233.679 473.538 229.184 467.993 229.184C462.448 229.184 457.953 233.679 457.953 239.224C457.953 244.769 462.448 249.264 467.993 249.264Z" fill="#F56977"/>
<path d="M450.791 230.16L449.023 230.032L447.263 229.984L445.495 230.152L443.735 229.784L441.967 230.064L440.199 229.824L438.431 229.848L436.671 230.008L434.903 229.888L433.135 229.912L431.367 229.84L429.599 229.792L427.831 229.904L426.063 230.152L424.295 229.784L422.527 229.808L420.759 229.944L418.991 230.168L417.223 229.792L415.447 229.928L413.679 230.016L411.903 230.064L410.135 229.88L409.039 228.808L410.135 227.608L411.895 227.616L413.663 227.672L415.423 227.56L417.191 227.488L418.959 227.576L420.719 227.768L422.487 227.64L424.255 227.688L426.023 227.448L427.791 227.768L429.559 227.808L431.327 227.648L433.095 227.6L434.863 227.656L436.631 227.512L438.399 227.464L440.159 227.52L441.935 227.712L443.703 227.912L445.471 227.784L447.247 227.824L449.015 227.432L450.791 227.608L451.863 228.808L450.791 230.16Z" fill="black"/>
<path d="M450.795 239.88L449.027 239.8L447.267 240.248L445.499 240.216L443.739 239.88L441.971 240.152L440.203 240.232L438.435 239.832L436.675 239.872L434.907 240.208L433.139 239.896L431.371 240.144L429.603 240.264L427.835 239.864L426.067 240.056L424.299 239.808L422.531 240.04L420.763 240.16L418.995 240.104L417.227 239.976L415.451 240.176L413.683 239.992L411.907 240.216L410.139 240.256L409.227 238.888L410.139 237.64L411.899 237.912L413.667 237.664L415.427 237.88L417.195 237.832L418.963 237.712L420.723 237.816L422.491 237.64L424.259 237.568L426.027 237.816L427.795 237.768L429.563 237.56L431.331 237.848L433.099 237.536L434.867 237.92L436.635 237.72L438.403 237.736L440.163 237.608L441.939 237.6L443.707 237.672L445.475 237.936L447.251 237.76L449.019 237.912L450.795 237.872L452.011 238.888L450.795 239.88Z" fill="black"/>
<path d="M450.796 250.168L449.028 250.248L447.268 250.312L445.5 250.216L443.74 250.176L441.972 250.128L440.204 249.952L438.436 250.296L436.676 250.008L434.908 250.088L433.14 249.984L431.372 250.192L429.604 249.984L427.836 250.032H426.068L424.3 250.32L422.532 250.04L420.764 250.072L418.996 250.344L417.228 250.104L415.452 249.968L413.684 250.192L411.908 250.344L410.14 250.064L408.852 248.976L410.14 247.752L411.9 247.896L413.668 247.768L415.428 247.656L417.196 247.688L418.964 247.968L420.724 247.736L422.492 247.752L424.26 248.032L426.028 248.008L427.796 247.608L429.564 247.72L431.332 247.928L433.1 247.84L434.868 247.664L436.636 247.936L438.404 248.08L440.164 247.968L441.94 248.032L443.708 248.048L445.476 247.768L447.252 248.056L449.02 247.864L450.796 248.056L452.108 248.976L450.796 250.168Z" fill="black"/>
<path d="M42.5743 200.063H107.326C114.272 200.063 119.902 194.432 119.902 187.487V162.575C119.902 155.629 114.272 149.999 107.326 149.999H42.5743C35.6288 149.999 29.9983 155.629 29.9983 162.575V187.487C29.9983 194.432 35.6288 200.063 42.5743 200.063Z" fill="#F5F5F5"/>
<path d="M98.2396 200.063L103.736 221.231L77.0156 193.095" fill="#F5F5F5"/>
<path d="M51.4083 186.287C57.6249 186.287 62.6643 181.247 62.6643 175.031C62.6643 168.814 57.6249 163.775 51.4083 163.775C45.1918 163.775 40.1523 168.814 40.1523 175.031C40.1523 181.247 45.1918 186.287 51.4083 186.287Z" fill="#27B5F7"/>
<path d="M105.83 165.639L103.582 165.751L101.342 165.959L99.1023 165.655L96.8543 165.879L94.6143 165.727L92.3663 165.615L90.1183 165.671L87.8783 165.951L85.6303 165.815L83.3823 165.791L81.1423 165.831L78.8943 165.807L76.6463 165.855L74.3983 165.559L72.1503 165.583L71.2383 164.719L72.1503 163.575L74.3903 163.847L76.6303 163.751L78.8783 163.887L81.1183 163.823L83.3663 163.567L85.6063 163.487L87.8543 163.847L90.1023 163.623L92.3423 163.511L94.5903 163.519L96.8383 163.839H99.0783L101.326 163.703L103.574 163.567L105.83 163.615L106.838 164.719L105.83 165.639Z" fill="black"/>
<path d="M105.831 175.663L103.583 175.895L101.343 175.871L99.1034 175.879L96.8554 175.735L94.6154 175.855L92.3674 176.023L90.1194 175.879L87.8794 175.911L85.6314 175.735L83.3834 175.927L81.1434 175.991L78.8954 176.015L76.6474 175.983L74.3994 175.647L72.1514 175.919L71.1914 174.807L72.1514 173.703L74.3914 173.783L76.6314 173.855L78.8794 173.551L81.1194 173.679L83.3674 173.831L85.6074 173.951L87.8554 173.687L90.1034 173.903L92.3434 173.943L94.5914 173.807H96.8394L99.0794 173.783L101.327 173.711L103.575 173.679L105.831 173.975L106.911 174.807L105.831 175.663Z" fill="black"/>
<path d="M105.833 186.111L103.585 185.911L101.345 185.935L99.1045 185.879L96.8565 186.111L94.6165 186.119L92.3685 186.111L90.1205 185.855L87.8805 185.943L85.6325 186.023L83.3845 186.015L81.1445 185.823L78.8965 186.087L76.6485 186.007L74.4005 186.063L72.1525 186.071L71.1445 184.887L72.1525 183.695L74.3925 183.975L76.6325 183.695L78.8805 183.839L81.1205 183.831L83.3685 183.895L85.6085 183.903L87.8565 184.007L90.1045 183.983L92.3445 183.879L94.5925 184.007L96.8405 184.047L99.0805 184.007L101.329 183.855L103.577 183.639L105.833 184.039L106.945 184.887L105.833 186.111Z" fill="black"/>
<path d="M483.215 86H350.785C346.485 86 343 89.5536 343 93.9371V142.063C343 146.446 346.485 150 350.785 150H483.215C487.515 150 491 146.446 491 142.063V93.9371C491 89.5536 487.515 86 483.215 86Z" fill="#F2F2F2"/>
<path d="M364.097 150.056L358.793 170.504L384.593 143.328" fill="#F2F2F2"/>
<path d="M367.319 129.28C373.535 129.28 378.575 124.24 378.575 118.024C378.575 111.807 373.535 106.768 367.319 106.768C361.102 106.768 356.062 111.807 356.062 118.024C356.062 124.24 361.102 129.28 367.319 129.28Z" fill="#F8C341"/>
<path d="M417.845 109.216L415.789 109.096L413.733 109.16L411.677 109.2L409.621 108.992L407.565 109.032L405.509 109.024L403.453 108.984L401.397 108.944L399.341 109.04L397.285 109.064L395.229 109.088L393.165 109.136L391.101 109.288L389.037 109.224L388.109 108.144L389.037 107.088L391.093 107.112L393.149 107.248L395.205 107L397.261 107.192L399.317 107.376L401.373 107.088L403.437 107.384L405.485 107.072L407.541 107.168L409.605 107.032L411.661 107.056L413.725 107.072L415.781 107.032L417.845 107.32L418.901 108.144L417.845 109.216Z" fill="black"/>
<path d="M446.736 109.216L444.68 109.096L442.624 109.16L440.568 109.2L438.512 108.992L436.456 109.032L434.4 109.024L432.344 108.984L430.288 108.944L428.232 109.04L426.176 109.064L424.12 109.088L422.056 109.136L419.992 109.288L417.928 109.224L417 108.144L417.928 107.088L419.984 107.112L422.04 107.248L424.096 107L426.152 107.192L428.208 107.376L430.264 107.088L432.328 107.384L434.376 107.072L436.432 107.168L438.496 107.032L440.552 107.056L442.616 107.072L444.672 107.032L446.736 107.32L447.792 108.144L446.736 109.216Z" fill="black"/>
<path d="M475.736 109.216L473.68 109.096L471.624 109.16L469.568 109.2L467.512 108.992L465.456 109.032L463.4 109.024L461.344 108.984L459.288 108.944L457.232 109.04L455.176 109.064L453.12 109.088L451.056 109.136L448.992 109.288L446.928 109.224L446 108.144L446.928 107.088L448.984 107.112L451.04 107.248L453.096 107L455.152 107.192L457.208 107.376L459.264 107.088L461.328 107.384L463.376 107.072L465.432 107.168L467.496 107.032L469.552 107.056L471.616 107.072L473.672 107.032L475.736 107.32L476.792 108.144L475.736 109.216Z" fill="black"/>
<path d="M417.85 119.152L415.794 119.072L413.738 119.024L411.682 119.328L409.626 119H407.57L405.514 119.248L403.458 119.168L401.402 119.064L399.346 119.008L397.29 119.08L395.234 119.112L393.17 119.248L391.106 119.36L389.042 119.088L388.242 118.224L389.042 117.4L391.098 117.224L393.154 117.2L395.21 117.296L397.266 117.44L399.322 117.176L401.378 117.352L403.442 117.464L405.49 117.168L407.546 117.4L409.61 117.36L411.666 117.272L413.73 117.168L415.786 117.44L417.85 117.32L418.954 118.224L417.85 119.152Z" fill="black"/>
<path d="M446.737 119.152L444.681 119.072L442.625 119.024L440.569 119.328L438.513 119H436.457L434.401 119.248L432.345 119.168L430.289 119.064L428.233 119.008L426.177 119.08L424.121 119.112L422.057 119.248L419.993 119.36L417.929 119.088L417.129 118.224L417.929 117.4L419.985 117.224L422.041 117.2L424.097 117.296L426.153 117.44L428.209 117.176L430.265 117.352L432.329 117.464L434.377 117.168L436.433 117.4L438.497 117.36L440.553 117.272L442.617 117.168L444.673 117.44L446.737 117.32L447.841 118.224L446.737 119.152Z" fill="black"/>
<path d="M475.737 119.152L473.681 119.072L471.625 119.024L469.569 119.328L467.513 119H465.457L463.401 119.248L461.345 119.168L459.289 119.064L457.233 119.008L455.177 119.08L453.121 119.112L451.057 119.248L448.993 119.36L446.929 119.088L446.129 118.224L446.929 117.4L448.985 117.224L451.041 117.2L453.097 117.296L455.153 117.44L457.209 117.176L459.265 117.352L461.329 117.464L463.377 117.168L465.433 117.4L467.497 117.36L469.553 117.272L471.617 117.168L473.673 117.44L475.737 117.32L476.841 118.224L475.737 119.152Z" fill="black"/>
<path d="M408.216 129.096L406.08 129.28L403.952 129.264L401.832 129.24L399.704 129.264L397.576 129.12L395.44 129.08L393.312 129.088L391.176 129.32L389.04 129.088L388 128.312L389.04 127.464L391.168 127.44L393.304 127.312L395.424 127.264L397.552 127.48L399.68 127.424L401.816 127.248L403.944 127.52L406.08 127.216L408.216 127.16L409.056 128.312L408.216 129.096Z" fill="black"/>
<path d="M426.216 129.096L424.08 129.28L421.952 129.264L419.832 129.24L417.704 129.264L415.576 129.12L413.44 129.08L411.312 129.088L409.176 129.32L407.04 129.088L406 128.312L407.04 127.464L409.168 127.44L411.304 127.312L413.424 127.264L415.552 127.48L417.68 127.424L419.816 127.248L421.944 127.52L424.08 127.216L426.216 127.16L427.056 128.312L426.216 129.096Z" fill="black"/>
</svg>
